<svg xmlns="http://www.w3.org/2000/svg" width="1440" height="900" viewBox="0 0 1440 900" fill="none">
  <defs><style>text { font-family: Inter, -apple-system, sans-serif; }</style></defs>
  <rect width="1440" height="900" fill="#f9fafb"/>

  <!-- SIDEBAR -->
  <g id="Ant.Layout.Sider">
    <rect width="240" height="900" fill="#fafafa"/>
    <rect x="239" width="1" height="900" fill="#e5e7eb"/>
    <rect x="20" y="16" width="24" height="24" rx="6" fill="#1a5fff"/>
    <path d="M28 22l4 6h-8l4-6z" fill="white" opacity="0.9"/>
    <text x="52" y="33" font-size="15" font-weight="600" fill="#111827">OrbitEOS</text>
    <rect x="0" y="56" width="240" height="1" fill="#e5e7eb"/>
    <rect x="12" y="68" width="216" height="36" rx="6" fill="#f9fafb" stroke="#e5e7eb" stroke-width="1"/>
    <text x="28" y="90" font-size="12" fill="#6b7280">De Groot Agri · Maasland</text>
    <text x="56" y="142" font-size="13" fill="#6b7280">Dashboard</text>
    <text x="56" y="182" font-size="13" fill="#6b7280">Energy Flow</text>
    <text x="56" y="224" font-size="13" fill="#6b7280">Fleet</text>
    <rect x="12" y="240" width="216" height="36" rx="6" fill="#eaf5ff"/>
    <rect x="0" y="244" width="3" height="28" rx="1" fill="#1a5fff"/>
    <text x="56" y="264" font-size="13" font-weight="500" fill="#1a5fff">Devices</text>
    <text x="56" y="312" font-size="13" fill="#6b7280">Alerts</text>
    <text x="56" y="356" font-size="13" fill="#6b7280">Marketplace</text>
    <text x="56" y="400" font-size="13" fill="#6b7280">Configuration</text>
    <rect x="0" y="840" width="240" height="1" fill="#e5e7eb"/>
    <circle cx="36" cy="872" r="16" fill="#e5e7eb"/>
    <text x="60" y="870" font-size="13" font-weight="500" fill="#111827">Deepak S.</text>
    <text x="60" y="885" font-size="11" fill="#9ca3af">Admin</text>
  </g>

  <!-- HEADER -->
  <g id="Ant.Layout.Header">
    <rect x="240" y="0" width="1200" height="56" fill="white"/>
    <rect x="240" y="55" width="1200" height="1" fill="#e5e7eb"/>
    <text x="264" y="24" font-size="13" fill="#9ca3af">Sites /</text>
    <text x="312" y="24" font-size="13" font-weight="500" fill="#111827">Devices</text>
    <text x="264" y="42" font-size="11" fill="#9ca3af">Device management and monitoring</text>
    <rect x="1302" y="12" width="114" height="32" rx="6" fill="#1a5fff"/>
    <text x="1359" y="33" font-size="13" font-weight="500" fill="white" text-anchor="middle">+ Add Device</text>
  </g>

  <!-- CONTENT -->
  <g id="Ant.Layout.Content" transform="translate(240, 56)">
    <rect width="1200" height="844" fill="#f9fafb"/>

    <!-- TOP STATS -->
    <g transform="translate(24, 16)">
      <rect width="272" height="80" rx="8" fill="white" stroke="#f3f4f6" stroke-width="1"/>
      <text x="20" y="28" font-size="11" fill="#9ca3af">TOTAL DEVICES</text>
      <text x="20" y="52" font-size="22" font-weight="700" fill="#111827">38</text>
      <text x="20" y="68" font-size="11" fill="#22c55e" font-weight="500">All healthy</text>

      <rect x="292" y="0" width="272" height="80" rx="8" fill="white" stroke="#f3f4f6" stroke-width="1"/>
      <text x="312" y="28" font-size="11" fill="#9ca3af">ONLINE</text>
      <text x="312" y="52" font-size="22" font-weight="700" fill="#111827">35</text>
      <circle cx="348" cy="45" r="4" fill="#22c55e"/>
      <text x="312" y="68" font-size="11" fill="#22c55e">92%</text>

      <rect x="584" y="0" width="272" height="80" rx="8" fill="white" stroke="#f3f4f6" stroke-width="1"/>
      <text x="604" y="28" font-size="11" fill="#9ca3af">ALERTS</text>
      <text x="604" y="52" font-size="22" font-weight="700" fill="#111827">3</text>
      <circle cx="630" cy="45" r="4" fill="#ef4444"/>
      <text x="604" y="68" font-size="11" fill="#ef4444">2 critical</text>

      <rect x="876" y="0" width="272" height="80" rx="8" fill="white" stroke="#f3f4f6" stroke-width="1"/>
      <text x="896" y="28" font-size="11" fill="#9ca3af">FIRMWARE UPDATES</text>
      <text x="896" y="52" font-size="22" font-weight="700" fill="#111827">2</text>
      <text x="896" y="68" font-size="11" fill="#3b82f6">Available</text>
    </g>

    <!-- DEVICE CATEGORY TABS -->
    <g transform="translate(24, 112)">
      <rect width="680" height="32" rx="6" fill="#f3f4f6"/>
      <rect x="2" y="2" width="90" height="28" rx="5" fill="#1a5fff"/>
      <text x="47" y="21" font-size="12" font-weight="600" fill="white" text-anchor="middle">All Devices</text>
      <text x="138" y="21" font-size="12" fill="#6b7280" text-anchor="middle">Inverters</text>
      <text x="220" y="21" font-size="12" fill="#6b7280" text-anchor="middle">Batteries</text>
      <text x="310" y="21" font-size="12" fill="#6b7280" text-anchor="middle">EV Chargers</text>
      <text x="400" y="21" font-size="12" fill="#6b7280" text-anchor="middle">Meters</text>
      <text x="490" y="21" font-size="12" fill="#6b7280" text-anchor="middle">Controllers</text>
    </g>

    <!-- DEVICE CARDS 2×3 GRID -->
    <g transform="translate(24, 160)">
      <!-- Card 1: PV Inverter -->
      <g>
        <rect width="560" height="150" rx="8" fill="white" stroke="#f3f4f6" stroke-width="1"/>
        <circle cx="36" cy="36" r="20" fill="#f0fdf4"/>
        <circle cx="36" cy="36" r="6" fill="#22c55e"/>
        <line x1="36" y1="24" x2="36" y2="20" stroke="#22c55e" stroke-width="1.5"/>
        <line x1="36" y1="48" x2="36" y2="52" stroke="#22c55e" stroke-width="1.5"/>
        <line x1="24" y1="36" x2="20" y2="36" stroke="#22c55e" stroke-width="1.5"/>
        <line x1="48" y1="36" x2="52" y2="36" stroke="#22c55e" stroke-width="1.5"/>
        <text x="68" y="30" font-size="14" font-weight="600" fill="#111827">PV Inverter</text>
        <text x="68" y="48" font-size="11" fill="#9ca3af">SMA Sunny Tripower 10kW</text>
        <rect x="440" y="22" width="50" height="20" rx="10" fill="#def6e7"/>
        <text x="452" y="36" font-size="11" fill="#22c55e">Online</text>
        <rect x="0" y="68" width="560" height="1" fill="#f3f4f6"/>
        <text x="20" y="88" font-size="10" fill="#9ca3af">Power</text>
        <text x="20" y="104" font-size="14" font-weight="600" fill="#111827">8.4 kW</text>
        <text x="150" y="88" font-size="10" fill="#9ca3af">Energy Today</text>
        <text x="150" y="104" font-size="14" font-weight="600" fill="#111827">42 kWh</text>
        <text x="290" y="88" font-size="10" fill="#9ca3af">Efficiency</text>
        <text x="290" y="104" font-size="14" font-weight="600" fill="#111827">97.2%</text>
        <text x="420" y="88" font-size="10" fill="#9ca3af">Temp</text>
        <text x="420" y="104" font-size="14" font-weight="600" fill="#111827">38°C</text>
        <rect x="20" y="120" width="520" height="4" rx="2" fill="#f3f4f6"/>
        <rect x="20" y="120" width="505" height="4" rx="2" fill="#22c55e" opacity="0.5"/>
      </g>

      <!-- Card 2: Battery -->
      <g transform="translate(580, 0)">
        <rect width="560" height="150" rx="8" fill="white" stroke="#f3f4f6" stroke-width="1"/>
        <circle cx="36" cy="36" r="20" fill="#f5f3ff"/>
        <rect x="30" y="28" width="12" height="16" rx="2" stroke="#8b5cf6" stroke-width="1.5" fill="none"/>
        <rect x="34" y="26" width="4" height="2" fill="#8b5cf6"/>
        <rect x="32" y="34" width="8" height="8" fill="#8b5cf6" opacity="0.4"/>
        <text x="68" y="30" font-size="14" font-weight="600" fill="#111827">Battery Storage</text>
        <text x="68" y="48" font-size="11" fill="#9ca3af">BYD HVS 20 kWh</text>
        <rect x="440" y="22" width="62" height="20" rx="10" fill="#e2ecfe"/>
        <text x="452" y="36" font-size="11" fill="#3b82f6">Charging</text>
        <rect x="0" y="68" width="560" height="1" fill="#f3f4f6"/>
        <text x="20" y="88" font-size="10" fill="#9ca3af">SoC</text>
        <text x="20" y="104" font-size="14" font-weight="600" fill="#111827">87%</text>
        <text x="150" y="88" font-size="10" fill="#9ca3af">Power</text>
        <text x="150" y="104" font-size="14" font-weight="600" fill="#111827">5.2 kW</text>
        <text x="290" y="88" font-size="10" fill="#9ca3af">Cycles</text>
        <text x="290" y="104" font-size="14" font-weight="600" fill="#111827">342</text>
        <text x="420" y="88" font-size="10" fill="#9ca3af">Health</text>
        <text x="420" y="104" font-size="14" font-weight="600" fill="#111827">98%</text>
        <rect x="20" y="120" width="520" height="4" rx="2" fill="#f3f4f6"/>
        <rect x="20" y="120" width="452" height="4" rx="2" fill="#8b5cf6" opacity="0.5"/>
      </g>

      <!-- Card 3: EV Charger -->
      <g transform="translate(0, 168)">
        <rect width="560" height="150" rx="8" fill="white" stroke="#f3f4f6" stroke-width="1"/>
        <circle cx="36" cy="36" r="20" fill="#eff6ff"/>
        <path d="M30 40h12M32 30h8v12h-8z" stroke="#3b82f6" stroke-width="1.5" fill="none"/>
        <text x="68" y="30" font-size="14" font-weight="600" fill="#111827">EV Charger</text>
        <text x="68" y="48" font-size="11" fill="#9ca3af">Alfen Eve Single Pro 22kW</text>
        <rect x="440" y="22" width="50" height="20" rx="10" fill="#def6e7"/>
        <text x="452" y="36" font-size="11" fill="#22c55e">Active</text>
        <rect x="0" y="68" width="560" height="1" fill="#f3f4f6"/>
        <text x="20" y="88" font-size="10" fill="#9ca3af">Power</text>
        <text x="20" y="104" font-size="14" font-weight="600" fill="#111827">11 kW</text>
        <text x="150" y="88" font-size="10" fill="#9ca3af">Sessions</text>
        <text x="150" y="104" font-size="14" font-weight="600" fill="#111827">24</text>
        <text x="290" y="88" font-size="10" fill="#9ca3af">Energy Today</text>
        <text x="290" y="104" font-size="14" font-weight="600" fill="#111827">86 kWh</text>
        <text x="420" y="88" font-size="10" fill="#9ca3af">OCPP</text>
        <text x="420" y="104" font-size="14" font-weight="600" fill="#22c55e">Connected</text>
        <rect x="20" y="120" width="520" height="4" rx="2" fill="#f3f4f6"/>
        <rect x="20" y="120" width="260" height="4" rx="2" fill="#3b82f6" opacity="0.5"/>
      </g>

      <!-- Card 4: Smart Meter -->
      <g transform="translate(580, 168)">
        <rect width="560" height="150" rx="8" fill="white" stroke="#f3f4f6" stroke-width="1"/>
        <circle cx="36" cy="36" r="20" fill="#fffbeb"/>
        <circle cx="36" cy="36" r="8" stroke="#f59e0b" stroke-width="1.5" fill="none"/>
        <line x1="36" y1="30" x2="36" y2="36" stroke="#f59e0b" stroke-width="1.5"/>
        <line x1="36" y1="36" x2="40" y2="40" stroke="#f59e0b" stroke-width="1.5"/>
        <text x="68" y="30" font-size="14" font-weight="600" fill="#111827">Smart Meter</text>
        <text x="68" y="48" font-size="11" fill="#9ca3af">DSMR P1 Landis+Gyr</text>
        <rect x="440" y="22" width="50" height="20" rx="10" fill="#def6e7"/>
        <text x="452" y="36" font-size="11" fill="#22c55e">Online</text>
        <rect x="0" y="68" width="560" height="1" fill="#f3f4f6"/>
        <text x="20" y="88" font-size="10" fill="#9ca3af">Import</text>
        <text x="20" y="104" font-size="14" font-weight="600" fill="#111827">1.2 kW</text>
        <text x="150" y="88" font-size="10" fill="#9ca3af">Export</text>
        <text x="150" y="104" font-size="14" font-weight="600" fill="#111827">0 kW</text>
        <text x="290" y="88" font-size="10" fill="#9ca3af">Today Import</text>
        <text x="290" y="104" font-size="14" font-weight="600" fill="#111827">28 kWh</text>
        <text x="420" y="88" font-size="10" fill="#9ca3af">Voltage</text>
        <text x="420" y="104" font-size="14" font-weight="600" fill="#111827">230 V</text>
        <rect x="20" y="120" width="520" height="4" rx="2" fill="#f3f4f6"/>
        <rect x="20" y="120" width="52" height="4" rx="2" fill="#f59e0b" opacity="0.5"/>
      </g>

      <!-- Card 5: Controller -->
      <g transform="translate(0, 336)">
        <rect width="560" height="150" rx="8" fill="white" stroke="#f3f4f6" stroke-width="1"/>
        <circle cx="36" cy="36" r="20" fill="#f9fafb"/>
        <rect x="28" y="28" width="16" height="16" rx="2" stroke="#9ca3af" stroke-width="1.5" fill="none"/>
        <circle cx="36" cy="36" r="3" fill="#9ca3af"/>
        <text x="68" y="30" font-size="14" font-weight="600" fill="#111827">Controller</text>
        <text x="68" y="48" font-size="11" fill="#9ca3af">Modbus RTU Gateway</text>
        <rect x="440" y="22" width="56" height="20" rx="10" fill="#f0f1f3"/>
        <text x="452" y="36" font-size="11" fill="#9ca3af">Standby</text>
        <rect x="0" y="68" width="560" height="1" fill="#f3f4f6"/>
        <text x="20" y="88" font-size="10" fill="#9ca3af">Protocol</text>
        <text x="20" y="104" font-size="14" font-weight="600" fill="#111827">Modbus RTU</text>
        <text x="150" y="88" font-size="10" fill="#9ca3af">Registers</text>
        <text x="150" y="104" font-size="14" font-weight="600" fill="#111827">124</text>
        <text x="290" y="88" font-size="10" fill="#9ca3af">Poll Rate</text>
        <text x="290" y="104" font-size="14" font-weight="600" fill="#111827">1s</text>
        <text x="420" y="88" font-size="10" fill="#9ca3af">Firmware</text>
        <text x="420" y="104" font-size="14" font-weight="600" fill="#111827">v3.2.1</text>
      </g>

      <!-- Card 6: Wind Turbine -->
      <g transform="translate(580, 336)">
        <rect width="560" height="150" rx="8" fill="white" stroke="#f3f4f6" stroke-width="1"/>
        <circle cx="36" cy="36" r="20" fill="#eff6ff"/>
        <path d="M30 36 Q36 28 42 36 Q36 44 30 36" stroke="#3b82f6" stroke-width="1.5" fill="none"/>
        <text x="68" y="30" font-size="14" font-weight="600" fill="#111827">Wind Turbine</text>
        <text x="68" y="48" font-size="11" fill="#9ca3af">Huawei SUN2000 5kW</text>
        <rect x="440" y="22" width="50" height="20" rx="10" fill="#def6e7"/>
        <text x="452" y="36" font-size="11" fill="#22c55e">Online</text>
        <rect x="0" y="68" width="560" height="1" fill="#f3f4f6"/>
        <text x="20" y="88" font-size="10" fill="#9ca3af">Power</text>
        <text x="20" y="104" font-size="14" font-weight="600" fill="#111827">3.2 kW</text>
        <text x="150" y="88" font-size="10" fill="#9ca3af">Wind Speed</text>
        <text x="150" y="104" font-size="14" font-weight="600" fill="#111827">12 m/s</text>
        <text x="290" y="88" font-size="10" fill="#9ca3af">Energy Today</text>
        <text x="290" y="104" font-size="14" font-weight="600" fill="#111827">18 kWh</text>
        <text x="420" y="88" font-size="10" fill="#9ca3af">RPM</text>
        <text x="420" y="104" font-size="14" font-weight="600" fill="#111827">142</text>
        <rect x="20" y="120" width="520" height="4" rx="2" fill="#f3f4f6"/>
        <rect x="20" y="120" width="333" height="4" rx="2" fill="#3b82f6" opacity="0.5"/>
      </g>
    </g>
  </g>
</svg>