<svg xmlns="http://www.w3.org/2000/svg" width="1440" height="900" viewBox="0 0 1440 900" fill="none">
  <defs><style>text { font-family: Inter, -apple-system, sans-serif; }</style></defs>
  <rect width="1440" height="900" fill="#f9fafb"/>

  <!-- SIDEBAR -->
  <g id="Ant.Layout.Sider">
    <rect width="240" height="900" fill="#fafafa"/>
    <rect x="239" width="1" height="900" fill="#e5e7eb"/>
    <rect x="20" y="16" width="24" height="24" rx="6" fill="#1a5fff"/>
    <path d="M28 22l4 6h-8l4-6z" fill="white" opacity="0.9"/>
    <text x="52" y="33" font-size="15" font-weight="600" fill="#111827">OrbitEOS</text>
    <rect x="0" y="56" width="240" height="1" fill="#e5e7eb"/>
    <rect x="12" y="68" width="216" height="36" rx="6" fill="#f9fafb" stroke="#e5e7eb" stroke-width="1"/>
    <text x="28" y="90" font-size="12" fill="#6b7280">De Groot Agri · Maasland</text>
    <text x="56" y="142" font-size="13" fill="#6b7280">Dashboard</text>
    <text x="56" y="182" font-size="13" fill="#6b7280">Energy Flow</text>
    <text x="56" y="224" font-size="13" fill="#6b7280">Fleet</text>
    <text x="56" y="268" font-size="13" fill="#6b7280">Devices</text>
    <rect x="12" y="280" width="216" height="36" rx="6" fill="#eaf5ff"/>
    <rect x="0" y="284" width="3" height="28" rx="1" fill="#1a5fff"/>
    <text x="56" y="304" font-size="13" font-weight="500" fill="#1a5fff">Alerts</text>
    <text x="56" y="356" font-size="13" fill="#6b7280">Marketplace</text>
    <text x="56" y="400" font-size="13" fill="#6b7280">Configuration</text>
    <rect x="0" y="840" width="240" height="1" fill="#e5e7eb"/>
    <circle cx="36" cy="872" r="16" fill="#e5e7eb"/>
    <text x="60" y="870" font-size="13" font-weight="500" fill="#111827">Deepak S.</text>
    <text x="60" y="885" font-size="11" fill="#9ca3af">Admin</text>
  </g>

  <!-- HEADER -->
  <g id="Ant.Layout.Header">
    <rect x="240" y="0" width="1200" height="56" fill="white"/>
    <rect x="240" y="55" width="1200" height="1" fill="#e5e7eb"/>
    <text x="264" y="24" font-size="13" fill="#9ca3af">Sites /</text>
    <text x="312" y="24" font-size="13" font-weight="500" fill="#111827">Alerts</text>
    <text x="264" y="42" font-size="11" fill="#9ca3af">System alerts and notifications</text>
    <rect x="1180" y="12" width="100" height="32" rx="6" fill="white" stroke="#e5e7eb" stroke-width="1"/>
    <text x="1230" y="33" font-size="12" font-weight="500" fill="#6b7280" text-anchor="middle">Mark All Read</text>
    <rect x="1302" y="12" width="114" height="32" rx="6" fill="#1a5fff"/>
    <text x="1359" y="33" font-size="13" font-weight="500" fill="white" text-anchor="middle">+ Add Rule</text>
  </g>

  <!-- CONTENT -->
  <g id="Ant.Layout.Content" transform="translate(240, 56)">
    <rect width="1200" height="844" fill="#f9fafb"/>

    <!-- ALERT STATS -->
    <g id="Ant.Card.AlertStats" transform="translate(24, 16)">
      <rect width="370" height="90" rx="8" fill="#fef2f2" stroke="#fde3e3" stroke-width="1"/>
      <text x="20" y="30" font-size="11" fill="#ef4444" font-weight="600">CRITICAL</text>
      <text x="20" y="58" font-size="26" font-weight="700" fill="#111827">3</text>
      <text x="20" y="78" font-size="11" fill="#ef4444">2 unacknowledged</text>
      <path d="M340 30l8 14h-16z" stroke="#ef4444" stroke-width="1.5" fill="none"/>
      <text x="344" y="40" font-size="8" fill="#ef4444" text-anchor="middle" font-weight="700">!</text>

      <rect x="390" y="0" width="370" height="90" rx="8" fill="#fffbeb" stroke="#fef3c7" stroke-width="1"/>
      <text x="410" y="30" font-size="11" fill="#f59e0b" font-weight="600">WARNINGS</text>
      <text x="410" y="58" font-size="26" font-weight="700" fill="#111827">8</text>
      <text x="410" y="78" font-size="11" fill="#f59e0b">5 active</text>

      <rect x="780" y="0" width="370" height="90" rx="8" fill="#f0fdf4" stroke="#dcfce7" stroke-width="1"/>
      <text x="800" y="30" font-size="11" fill="#22c55e" font-weight="600">RESOLVED TODAY</text>
      <text x="800" y="58" font-size="26" font-weight="700" fill="#111827">24</text>
      <text x="800" y="78" font-size="11" fill="#22c55e">98% auto-resolved</text>
    </g>

    <!-- FILTER TABS -->
    <g id="Ant.Tabs.AlertFilter" transform="translate(24, 126)">
      <text x="0" y="14" font-size="13" font-weight="600" fill="#1a5fff">All</text>
      <rect x="0" y="20" width="20" height="2" fill="#1a5fff"/>
      <text x="44" y="14" font-size="13" fill="#6b7280">Critical</text>
      <text x="104" y="14" font-size="13" fill="#6b7280">Warning</text>
      <text x="172" y="14" font-size="13" fill="#6b7280">Info</text>
      <text x="212" y="14" font-size="13" fill="#6b7280">Resolved</text>
      <rect x="0" y="24" width="1152" height="1" fill="#e5e7eb"/>

      <rect x="980" y="-4" width="170" height="32" rx="6" fill="white" stroke="#e5e7eb" stroke-width="1"/>
      <text x="996" y="17" font-size="12" fill="#6b7280">Last 24 hours</text>
      <path d="M1134 12l4 5h-8l4-5z" fill="#9ca3af"/>
    </g>

    <!-- ALERTS TABLE -->
    <g id="Ant.Table.Alerts" transform="translate(24, 168)">
      <rect width="1152" height="560" rx="8" fill="white" stroke="#f3f4f6" stroke-width="1"/>

      <!-- Header -->
      <rect width="1152" height="40" rx="8" fill="#fafafa"/>
      <text x="20" y="25" font-size="11" fill="#9ca3af" font-weight="600">SEVERITY</text>
      <text x="130" y="25" font-size="11" fill="#9ca3af" font-weight="600">ALERT</text>
      <text x="440" y="25" font-size="11" fill="#9ca3af" font-weight="600">DEVICE</text>
      <text x="620" y="25" font-size="11" fill="#9ca3af" font-weight="600">SITE</text>
      <text x="780" y="25" font-size="11" fill="#9ca3af" font-weight="600">TIME</text>
      <text x="880" y="25" font-size="11" fill="#9ca3af" font-weight="600">STATUS</text>
      <text x="1000" y="25" font-size="11" fill="#9ca3af" font-weight="600">ACTIONS</text>

      <!-- Row 1 - Critical -->
      <rect x="0" y="40" width="4" height="48" fill="#ef4444"/>
      <rect x="20" y="50" width="56" height="20" rx="10" fill="#fde3e3"/>
      <text x="32" y="64" font-size="10" fill="#ef4444" font-weight="500">Critical</text>
      <text x="130" y="68" font-size="12" font-weight="500" fill="#111827">Grid overload risk detected</text>
      <text x="440" y="68" font-size="12" fill="#6b7280">DSMR P1 Meter</text>
      <text x="620" y="68" font-size="12" fill="#6b7280">De Groot Agri</text>
      <text x="780" y="68" font-size="11" fill="#9ca3af">2 min ago</text>
      <rect x="880" y="55" width="44" height="20" rx="10" fill="#fde3e3"/>
      <text x="892" y="69" font-size="10" fill="#ef4444">Open</text>
      <rect x="1000" y="52" width="90" height="26" rx="4" fill="white" stroke="#e5e7eb" stroke-width="1"/>
      <text x="1012" y="69" font-size="11" fill="#6b7280">Acknowledge</text>
      <rect x="0" y="88" width="1152" height="1" fill="#f3f4f6"/>

      <!-- Row 2 - Critical -->
      <rect x="0" y="89" width="4" height="48" fill="#ef4444"/>
      <rect x="20" y="99" width="56" height="20" rx="10" fill="#fde3e3"/>
      <text x="32" y="113" font-size="10" fill="#ef4444" font-weight="500">Critical</text>
      <text x="130" y="117" font-size="12" font-weight="500" fill="#111827">Inverter fault code F31</text>
      <text x="440" y="117" font-size="12" fill="#6b7280">SMA Inverter</text>
      <text x="620" y="117" font-size="12" fill="#6b7280">Utrecht</text>
      <text x="780" y="117" font-size="11" fill="#9ca3af">8 min ago</text>
      <rect x="880" y="104" width="44" height="20" rx="10" fill="#fde3e3"/>
      <text x="892" y="118" font-size="10" fill="#ef4444">Open</text>
      <rect x="1000" y="101" width="90" height="26" rx="4" fill="white" stroke="#e5e7eb" stroke-width="1"/>
      <text x="1012" y="118" font-size="11" fill="#6b7280">Acknowledge</text>
      <rect x="0" y="137" width="1152" height="1" fill="#f3f4f6"/>

      <!-- Row 3 - Critical (Ack'd) -->
      <rect x="0" y="138" width="4" height="48" fill="#ef4444"/>
      <rect x="20" y="148" width="56" height="20" rx="10" fill="#fde3e3"/>
      <text x="32" y="162" font-size="10" fill="#ef4444" font-weight="500">Critical</text>
      <text x="130" y="166" font-size="12" font-weight="500" fill="#111827">Battery temp >45°C</text>
      <text x="440" y="166" font-size="12" fill="#6b7280">BYD HVS</text>
      <text x="620" y="166" font-size="12" fill="#6b7280">Rotterdam</text>
      <text x="780" y="166" font-size="11" fill="#9ca3af">15 min ago</text>
      <rect x="880" y="153" width="44" height="20" rx="10" fill="#fef3c7"/>
      <text x="892" y="167" font-size="10" fill="#f59e0b">Ack'd</text>
      <rect x="1000" y="150" width="64" height="26" rx="4" fill="white" stroke="#e5e7eb" stroke-width="1"/>
      <text x="1012" y="167" font-size="11" fill="#6b7280">Resolve</text>
      <rect x="0" y="186" width="1152" height="1" fill="#f3f4f6"/>

      <!-- Row 4 - Warning -->
      <rect x="0" y="187" width="4" height="48" fill="#f59e0b"/>
      <rect x="20" y="197" width="62" height="20" rx="10" fill="#fef3c7"/>
      <text x="32" y="211" font-size="10" fill="#f59e0b" font-weight="500">Warning</text>
      <text x="130" y="215" font-size="12" font-weight="500" fill="#111827">Battery SoC below threshold</text>
      <text x="440" y="215" font-size="12" fill="#6b7280">BYD HVS</text>
      <text x="620" y="215" font-size="12" fill="#6b7280">De Groot Agri</text>
      <text x="780" y="215" font-size="11" fill="#9ca3af">18 min ago</text>
      <rect x="880" y="202" width="44" height="20" rx="10" fill="#fef3c7"/>
      <text x="892" y="216" font-size="10" fill="#f59e0b">Open</text>
      <rect x="1000" y="199" width="90" height="26" rx="4" fill="white" stroke="#e5e7eb" stroke-width="1"/>
      <text x="1012" y="216" font-size="11" fill="#6b7280">Acknowledge</text>
      <rect x="0" y="235" width="1152" height="1" fill="#f3f4f6"/>

      <!-- Row 5 - Warning -->
      <rect x="0" y="236" width="4" height="48" fill="#f59e0b"/>
      <rect x="20" y="246" width="62" height="20" rx="10" fill="#fef3c7"/>
      <text x="32" y="260" font-size="10" fill="#f59e0b" font-weight="500">Warning</text>
      <text x="130" y="264" font-size="12" font-weight="500" fill="#111827">OCPP charger offline</text>
      <text x="440" y="264" font-size="12" fill="#6b7280">Alfen EVCP-03</text>
      <text x="620" y="264" font-size="12" fill="#6b7280">Amersfoort</text>
      <text x="780" y="264" font-size="11" fill="#9ca3af">1h ago</text>
      <rect x="880" y="251" width="44" height="20" rx="10" fill="#fef3c7"/>
      <text x="892" y="265" font-size="10" fill="#f59e0b">Open</text>
      <rect x="1000" y="248" width="90" height="26" rx="4" fill="white" stroke="#e5e7eb" stroke-width="1"/>
      <text x="1012" y="265" font-size="11" fill="#6b7280">Acknowledge</text>
      <rect x="0" y="284" width="1152" height="1" fill="#f3f4f6"/>

      <!-- Row 6 - Info/Resolved -->
      <rect x="0" y="285" width="4" height="48" fill="#3b82f6"/>
      <rect x="20" y="295" width="36" height="20" rx="10" fill="#e2ecfe"/>
      <text x="28" y="309" font-size="10" fill="#3b82f6" font-weight="500">Info</text>
      <text x="130" y="313" font-size="12" font-weight="500" fill="#111827">P1 meter sync restored</text>
      <text x="440" y="313" font-size="12" fill="#6b7280">DSMR P1</text>
      <text x="620" y="313" font-size="12" fill="#6b7280">De Groot Agri</text>
      <text x="780" y="313" font-size="11" fill="#9ca3af">2h ago</text>
      <rect x="880" y="300" width="62" height="20" rx="10" fill="#def6e7"/>
      <text x="892" y="314" font-size="10" fill="#22c55e">Resolved</text>
      <text x="1020" y="313" font-size="12" fill="#9ca3af">—</text>
      <rect x="0" y="333" width="1152" height="1" fill="#f3f4f6"/>

      <!-- Row 7 - Resolved -->
      <rect x="0" y="334" width="4" height="48" fill="#22c55e"/>
      <rect x="20" y="344" width="62" height="20" rx="10" fill="#def6e7"/>
      <text x="28" y="358" font-size="10" fill="#22c55e" font-weight="500">Resolved</text>
      <text x="130" y="362" font-size="12" font-weight="500" fill="#111827">Forecast accuracy: 94.2%</text>
      <text x="440" y="362" font-size="12" fill="#6b7280">System</text>
      <text x="620" y="362" font-size="12" fill="#6b7280">All Sites</text>
      <text x="780" y="362" font-size="11" fill="#9ca3af">6h ago</text>
      <rect x="880" y="349" width="62" height="20" rx="10" fill="#def6e7"/>
      <text x="892" y="363" font-size="10" fill="#22c55e">Resolved</text>
      <text x="1020" y="362" font-size="12" fill="#9ca3af">—</text>
      <rect x="0" y="382" width="1152" height="1" fill="#f3f4f6"/>

      <!-- Pagination -->
      <text x="20" y="540" font-size="12" fill="#9ca3af">Showing 1-7 of 35 alerts</text>
      <rect x="1060" y="524" width="28" height="28" rx="4" fill="white" stroke="#e5e7eb" stroke-width="1"/>
      <text x="1074" y="543" font-size="12" fill="#9ca3af" text-anchor="middle">&lt;</text>
      <rect x="1094" y="524" width="28" height="28" rx="4" fill="#1a5fff"/>
      <text x="1108" y="543" font-size="12" fill="white" text-anchor="middle" font-weight="600">1</text>
      <rect x="1128" y="524" width="28" height="28" rx="4" fill="white" stroke="#e5e7eb" stroke-width="1"/>
      <text x="1142" y="543" font-size="12" fill="#9ca3af" text-anchor="middle">&gt;</text>
    </g>
  </g>
</svg>