<svg xmlns="http://www.w3.org/2000/svg" width="1440" height="900" viewBox="0 0 1440 900" fill="none">
  <defs>
    <style>text { font-family: Inter, -apple-system, sans-serif; }</style>
    <linearGradient id="featuredGrad" x1="0" y1="0" x2="1152" y2="180" gradientUnits="userSpaceOnUse">
      <stop offset="0%" stop-color="#1a5fff"/><stop offset="100%" stop-color="#3b82f6"/>
    </linearGradient>
  </defs>
  <rect width="1440" height="900" fill="#f9fafb"/>

  <!-- SIDEBAR -->
  <g id="Ant.Layout.Sider">
    <rect width="240" height="900" fill="#fafafa"/>
    <rect x="239" width="1" height="900" fill="#e5e7eb"/>
    <rect x="20" y="16" width="24" height="24" rx="6" fill="#1a5fff"/>
    <path d="M28 22l4 6h-8l4-6z" fill="white" opacity="0.9"/>
    <text x="52" y="33" font-size="15" font-weight="600" fill="#111827">OrbitEOS</text>
    <rect x="0" y="56" width="240" height="1" fill="#e5e7eb"/>
    <rect x="12" y="68" width="216" height="36" rx="6" fill="#f9fafb" stroke="#e5e7eb" stroke-width="1"/>
    <text x="28" y="90" font-size="12" fill="#6b7280">De Groot Agri · Maasland</text>
    <text x="56" y="142" font-size="13" fill="#6b7280">Dashboard</text>
    <text x="56" y="182" font-size="13" fill="#6b7280">Energy Flow</text>
    <text x="56" y="224" font-size="13" fill="#6b7280">Fleet</text>
    <text x="56" y="268" font-size="13" fill="#6b7280">Devices</text>
    <text x="56" y="312" font-size="13" fill="#6b7280">Alerts</text>
    <rect x="12" y="320" width="216" height="36" rx="6" fill="#eaf5ff"/>
    <rect x="0" y="324" width="3" height="28" rx="1" fill="#1a5fff"/>
    <text x="56" y="344" font-size="13" font-weight="500" fill="#1a5fff">Marketplace</text>
    <text x="56" y="400" font-size="13" fill="#6b7280">Configuration</text>
    <rect x="0" y="840" width="240" height="1" fill="#e5e7eb"/>
    <circle cx="36" cy="872" r="16" fill="#e5e7eb"/>
    <text x="60" y="870" font-size="13" font-weight="500" fill="#111827">Deepak S.</text>
    <text x="60" y="885" font-size="11" fill="#9ca3af">Admin</text>
  </g>

  <!-- HEADER -->
  <g id="Ant.Layout.Header">
    <rect x="240" y="0" width="1200" height="56" fill="white"/>
    <rect x="240" y="55" width="1200" height="1" fill="#e5e7eb"/>
    <text x="264" y="24" font-size="13" fill="#9ca3af">Sites /</text>
    <text x="312" y="24" font-size="13" font-weight="500" fill="#111827">Marketplace</text>
    <text x="264" y="42" font-size="11" fill="#9ca3af">Explore apps, integrations and devices</text>
    <rect x="1280" y="12" width="130" height="32" rx="6" fill="white" stroke="#e5e7eb" stroke-width="1"/>
    <text x="1345" y="33" font-size="12" font-weight="500" fill="#6b7280" text-anchor="middle">My Installations</text>
  </g>

  <!-- CONTENT -->
  <g id="Ant.Layout.Content" transform="translate(240, 56)">
    <rect width="1200" height="844" fill="#f9fafb"/>

    <!-- SEARCH BAR -->
    <g id="Ant.Input.Search" transform="translate(24, 16)">
      <rect width="1152" height="44" rx="8" fill="white" stroke="#e5e7eb" stroke-width="1"/>
      <circle cx="24" cy="22" r="8" stroke="#9ca3af" stroke-width="1.5" fill="none"/>
      <line x1="30" y1="28" x2="35" y2="33" stroke="#9ca3af" stroke-width="1.5"/>
      <text x="44" y="27" font-size="13" fill="#d1d5db">Search apps, integrations, and devices...</text>
    </g>

    <!-- CATEGORY PILLS -->
    <g id="Ant.Tag.Categories" transform="translate(24, 74)">
      <rect width="36" height="28" rx="14" fill="#1a5fff"/>
      <text x="18" y="19" font-size="12" font-weight="500" fill="white" text-anchor="middle">All</text>
      <rect x="48" y="0" width="128" height="28" rx="14" fill="white" stroke="#e5e7eb" stroke-width="1"/>
      <text x="112" y="19" font-size="12" fill="#6b7280" text-anchor="middle">Energy Management</text>
      <rect x="188" y="0" width="92" height="28" rx="14" fill="white" stroke="#e5e7eb" stroke-width="1"/>
      <text x="234" y="19" font-size="12" fill="#6b7280" text-anchor="middle">EV Charging</text>
      <rect x="292" y="0" width="66" height="28" rx="14" fill="white" stroke="#e5e7eb" stroke-width="1"/>
      <text x="325" y="19" font-size="12" fill="#6b7280" text-anchor="middle">Battery</text>
      <rect x="370" y="0" width="56" height="28" rx="14" fill="white" stroke="#e5e7eb" stroke-width="1"/>
      <text x="398" y="19" font-size="12" fill="#6b7280" text-anchor="middle">Solar</text>
      <rect x="438" y="0" width="82" height="28" rx="14" fill="white" stroke="#e5e7eb" stroke-width="1"/>
      <text x="479" y="19" font-size="12" fill="#6b7280" text-anchor="middle">Monitoring</text>
      <rect x="532" y="0" width="66" height="28" rx="14" fill="white" stroke="#e5e7eb" stroke-width="1"/>
      <text x="565" y="19" font-size="12" fill="#6b7280" text-anchor="middle">AI &amp; ML</text>
    </g>

    <!-- FEATURED BANNER -->
    <g id="Ant.Card.Featured" transform="translate(24, 116)">
      <rect width="1152" height="160" rx="12" fill="url(#featuredGrad)"/>
      <text x="40" y="50" font-size="24" font-weight="700" fill="white">OrbitEOS Energy Domain</text>
      <text x="40" y="76" font-size="14" fill="white" opacity="0.85">Complete energy management suite with real-time monitoring, forecasting, and optimization</text>
      <rect x="40" y="100" width="80" height="32" rx="6" fill="white"/>
      <text x="80" y="121" font-size="13" font-weight="600" fill="#1a5fff" text-anchor="middle">Install</text>
      <text x="140" y="121" font-size="13" fill="white" opacity="0.9">4.8 ★  ·  2.4k installs</text>
    </g>

    <!-- APP GRID 3×2 -->
    <g id="Ant.Card.AppGrid" transform="translate(24, 296)">
      <!-- App 1 -->
      <g>
        <rect width="365" height="190" rx="8" fill="white" stroke="#f3f4f6" stroke-width="1"/>
        <rect x="20" y="20" width="48" height="48" rx="12" fill="#f0fdf4"/>
        <circle cx="44" cy="44" r="12" fill="#22c55e" opacity="0.3"/>
        <circle cx="44" cy="44" r="6" fill="#22c55e"/>
        <text x="80" y="36" font-size="14" font-weight="600" fill="#111827">Solar Optimizer Pro</text>
        <text x="80" y="52" font-size="11" fill="#9ca3af">by SunTech Labs</text>
        <text x="20" y="88" font-size="12" fill="#6b7280">AI-driven solar panel optimization with</text>
        <text x="20" y="104" font-size="12" fill="#6b7280">real-time MPPT tracking and yield forecast</text>
        <rect x="20" y="150" width="56" height="22" rx="11" fill="#f0fdf4"/>
        <text x="32" y="165" font-size="10" fill="#22c55e">Energy</text>
        <text x="200" y="165" font-size="12" fill="#f59e0b">4.9 ★</text>
        <text x="300" y="165" font-size="12" font-weight="600" fill="#22c55e" text-anchor="end">Free</text>
      </g>

      <!-- App 2 -->
      <g transform="translate(385, 0)">
        <rect width="365" height="190" rx="8" fill="white" stroke="#f3f4f6" stroke-width="1"/>
        <rect x="20" y="20" width="48" height="48" rx="12" fill="#eff6ff"/>
        <circle cx="44" cy="44" r="12" fill="#3b82f6" opacity="0.3"/>
        <path d="M38 44h12M42 38v12" stroke="#3b82f6" stroke-width="2"/>
        <text x="80" y="36" font-size="14" font-weight="600" fill="#111827">EV Fleet Manager</text>
        <text x="80" y="52" font-size="11" fill="#9ca3af">by ChargePoint</text>
        <text x="20" y="88" font-size="12" fill="#6b7280">Manage EV charging schedules, load</text>
        <text x="20" y="104" font-size="12" fill="#6b7280">balancing and driver authorization</text>
        <rect x="20" y="150" width="82" height="22" rx="11" fill="#eff6ff"/>
        <text x="32" y="165" font-size="10" fill="#3b82f6">EV Charging</text>
        <text x="200" y="165" font-size="12" fill="#f59e0b">4.7 ★</text>
        <text x="300" y="165" font-size="12" font-weight="600" fill="#111827" text-anchor="end">€29/mo</text>
      </g>

      <!-- App 3 -->
      <g transform="translate(770, 0)">
        <rect width="365" height="190" rx="8" fill="white" stroke="#f3f4f6" stroke-width="1"/>
        <rect x="20" y="20" width="48" height="48" rx="12" fill="#f5f3ff"/>
        <rect x="38" y="34" width="12" height="16" rx="2" stroke="#8b5cf6" stroke-width="1.5" fill="none"/>
        <rect x="42" y="32" width="4" height="2" fill="#8b5cf6"/>
        <text x="80" y="36" font-size="14" font-weight="600" fill="#111827">Battery Health Monitor</text>
        <text x="80" y="52" font-size="11" fill="#9ca3af">by BYD Smart</text>
        <text x="20" y="88" font-size="12" fill="#6b7280">Advanced battery diagnostics with SoH</text>
        <text x="20" y="104" font-size="12" fill="#6b7280">prediction and degradation analysis</text>
        <rect x="20" y="150" width="56" height="22" rx="11" fill="#f5f3ff"/>
        <text x="32" y="165" font-size="10" fill="#8b5cf6">Battery</text>
        <text x="200" y="165" font-size="12" fill="#f59e0b">4.6 ★</text>
        <text x="300" y="165" font-size="12" font-weight="600" fill="#22c55e" text-anchor="end">Free</text>
      </g>

      <!-- App 4 -->
      <g transform="translate(0, 210)">
        <rect width="365" height="190" rx="8" fill="white" stroke="#f3f4f6" stroke-width="1"/>
        <rect x="20" y="20" width="48" height="48" rx="12" fill="#fffbeb"/>
        <circle cx="44" cy="44" r="12" fill="#f59e0b" opacity="0.3"/>
        <text x="40" y="48" font-size="14" fill="#f59e0b" text-anchor="middle">€</text>
        <text x="80" y="36" font-size="14" font-weight="600" fill="#111827">Grid Tariff Optimizer</text>
        <text x="80" y="52" font-size="11" fill="#9ca3af">by EnergyBrain</text>
        <text x="20" y="88" font-size="12" fill="#6b7280">Optimize energy costs with dynamic</text>
        <text x="20" y="104" font-size="12" fill="#6b7280">tariffs and EPEX SPOT integration</text>
        <rect x="20" y="150" width="56" height="22" rx="11" fill="#fffbeb"/>
        <text x="32" y="165" font-size="10" fill="#f59e0b">Energy</text>
        <text x="200" y="165" font-size="12" fill="#f59e0b">4.5 ★</text>
        <text x="300" y="165" font-size="12" font-weight="600" fill="#111827" text-anchor="end">€19/mo</text>
      </g>

      <!-- App 5 -->
      <g transform="translate(385, 210)">
        <rect width="365" height="190" rx="8" fill="white" stroke="#f3f4f6" stroke-width="1"/>
        <rect x="20" y="20" width="48" height="48" rx="12" fill="#eff6ff"/>
        <circle cx="44" cy="44" r="12" fill="#3b82f6" opacity="0.3"/>
        <path d="M38 48l4-8 4 4 4-8" stroke="#3b82f6" stroke-width="1.5" fill="none"/>
        <text x="80" y="36" font-size="14" font-weight="600" fill="#111827">Weather Forecast AI</text>
        <text x="80" y="52" font-size="11" fill="#9ca3af">by MeteoTech</text>
        <text x="20" y="88" font-size="12" fill="#6b7280">ML-powered weather predictions for</text>
        <text x="20" y="104" font-size="12" fill="#6b7280">solar irradiance and wind forecasting</text>
        <rect x="20" y="150" width="56" height="22" rx="11" fill="#eff6ff"/>
        <text x="32" y="165" font-size="10" fill="#3b82f6">AI &amp; ML</text>
        <text x="200" y="165" font-size="12" fill="#f59e0b">4.8 ★</text>
        <text x="300" y="165" font-size="12" font-weight="600" fill="#22c55e" text-anchor="end">Free</text>
      </g>

      <!-- App 6 -->
      <g transform="translate(770, 210)">
        <rect width="365" height="190" rx="8" fill="white" stroke="#f3f4f6" stroke-width="1"/>
        <rect x="20" y="20" width="48" height="48" rx="12" fill="#f0fdf4"/>
        <circle cx="44" cy="44" r="12" fill="#22c55e" opacity="0.3"/>
        <path d="M38 50l4-6 4 3 4-9" stroke="#22c55e" stroke-width="1.5" fill="none"/>
        <text x="80" y="36" font-size="14" font-weight="600" fill="#111827">Carbon Tracker</text>
        <text x="80" y="52" font-size="11" fill="#9ca3af">by GreenMetrics</text>
        <text x="20" y="88" font-size="12" fill="#6b7280">Real-time carbon footprint monitoring</text>
        <text x="20" y="104" font-size="12" fill="#6b7280">with scope 1/2/3 emission reporting</text>
        <rect x="20" y="150" width="82" height="22" rx="11" fill="#f0fdf4"/>
        <text x="32" y="165" font-size="10" fill="#22c55e">Monitoring</text>
        <text x="200" y="165" font-size="12" fill="#f59e0b">4.4 ★</text>
        <text x="300" y="165" font-size="12" font-weight="600" fill="#111827" text-anchor="end">€9/mo</text>
      </g>
    </g>
  </g>
</svg>