<svg xmlns="http://www.w3.org/2000/svg" width="1440" height="900" viewBox="0 0 1440 900" fill="none">
  <defs><style>text { font-family: Inter, -apple-system, sans-serif; }</style></defs>
  <rect width="1440" height="900" fill="#f9fafb"/>

  <!-- SIDEBAR -->
  <g id="Ant.Layout.Sider">
    <rect width="240" height="900" fill="#fafafa"/>
    <rect x="239" width="1" height="900" fill="#e5e7eb"/>
    <rect x="20" y="16" width="24" height="24" rx="6" fill="#1a5fff"/>
    <path d="M28 22l4 6h-8l4-6z" fill="white" opacity="0.9"/>
    <text x="52" y="33" font-size="15" font-weight="600" fill="#111827">OrbitEOS</text>
    <rect x="0" y="56" width="240" height="1" fill="#e5e7eb"/>
    <rect x="12" y="68" width="216" height="36" rx="6" fill="#f9fafb" stroke="#e5e7eb" stroke-width="1"/>
    <text x="28" y="90" font-size="12" fill="#6b7280">De Groot Agri · Maasland</text>
    <text x="56" y="142" font-size="13" fill="#6b7280">Dashboard</text>
    <text x="56" y="182" font-size="13" fill="#6b7280">Energy Flow</text>
    <text x="56" y="224" font-size="13" fill="#6b7280">Fleet</text>
    <text x="56" y="268" font-size="13" fill="#6b7280">Devices</text>
    <text x="56" y="312" font-size="13" fill="#6b7280">Alerts</text>
    <text x="56" y="356" font-size="13" fill="#6b7280">Marketplace</text>
    <text x="56" y="400" font-size="13" fill="#6b7280">Configuration</text>
    <rect x="12" y="418" width="216" height="36" rx="6" fill="#eaf5ff"/>
    <rect x="0" y="422" width="3" height="28" rx="1" fill="#1a5fff"/>
    <text x="56" y="442" font-size="13" font-weight="500" fill="#1a5fff">Tariff Arbitrage</text>
    <rect x="0" y="840" width="240" height="1" fill="#e5e7eb"/>
    <circle cx="36" cy="872" r="16" fill="#e5e7eb"/>
    <text x="60" y="870" font-size="13" font-weight="500" fill="#111827">Deepak S.</text>
    <text x="60" y="885" font-size="11" fill="#9ca3af">Admin</text>
  </g>

  <!-- HEADER -->
  <g id="Ant.Layout.Header">
    <rect x="240" y="0" width="1200" height="56" fill="white"/>
    <rect x="240" y="55" width="1200" height="1" fill="#e5e7eb"/>
    <text x="264" y="24" font-size="13" fill="#9ca3af">Energy /</text>
    <text x="318" y="24" font-size="13" font-weight="500" fill="#111827">Tariff Arbitrage</text>
    <text x="264" y="42" font-size="11" fill="#9ca3af">EPEX SPOT day-ahead prices and charge scheduling</text>
    <rect x="1302" y="12" width="114" height="32" rx="6" fill="white" stroke="#e5e7eb" stroke-width="1"/>
    <text x="1359" y="33" font-size="12" font-weight="500" fill="#6b7280" text-anchor="middle">Export CSV</text>
  </g>

  <!-- CONTENT -->
  <g id="Ant.Layout.Content" transform="translate(240, 56)">
    <rect width="1200" height="844" fill="#f9fafb"/>

    <!-- STAT CARDS -->
    <g id="Ant.Card.TariffStats" transform="translate(24, 16)">
      <!-- Current Price -->
      <rect width="275" height="96" rx="8" fill="white" stroke="#f3f4f6" stroke-width="1"/>
      <rect x="0" y="0" width="275" height="4" rx="2" fill="#1a5fff"/>
      <text x="20" y="36" font-size="11" fill="#9ca3af">CURRENT PRICE</text>
      <text x="20" y="62" font-size="24" font-weight="700" fill="#111827">€0.142</text>
      <text x="110" y="62" font-size="12" fill="#9ca3af">/kWh</text>
      <text x="20" y="82" font-size="11" fill="#22c55e">▼ 23% below avg</text>

      <!-- Avg Price Today -->
      <rect x="295" y="0" width="275" height="96" rx="8" fill="white" stroke="#f3f4f6" stroke-width="1"/>
      <rect x="295" y="0" width="275" height="4" rx="2" fill="#f59e0b"/>
      <text x="315" y="36" font-size="11" fill="#9ca3af">AVG PRICE TODAY</text>
      <text x="315" y="62" font-size="24" font-weight="700" fill="#111827">€0.184</text>
      <text x="405" y="62" font-size="12" fill="#9ca3af">/kWh</text>
      <text x="315" y="82" font-size="11" fill="#ef4444">▲ 8% vs yesterday</text>

      <!-- Cost Savings -->
      <rect x="590" y="0" width="275" height="96" rx="8" fill="white" stroke="#f3f4f6" stroke-width="1"/>
      <rect x="590" y="0" width="275" height="4" rx="2" fill="#22c55e"/>
      <text x="610" y="36" font-size="11" fill="#9ca3af">SAVINGS TODAY</text>
      <text x="610" y="62" font-size="24" font-weight="700" fill="#22c55e">€34.20</text>
      <text x="610" y="82" font-size="11" fill="#22c55e">from optimized scheduling</text>

      <!-- Next Charge Window -->
      <rect x="885" y="0" width="267" height="96" rx="8" fill="white" stroke="#f3f4f6" stroke-width="1"/>
      <rect x="885" y="0" width="267" height="4" rx="2" fill="#8b5cf6"/>
      <text x="905" y="36" font-size="11" fill="#9ca3af">NEXT CHEAP WINDOW</text>
      <text x="905" y="62" font-size="24" font-weight="700" fill="#8b5cf6">02:00</text>
      <text x="975" y="62" font-size="12" fill="#9ca3af">- 06:00</text>
      <text x="905" y="82" font-size="11" fill="#8b5cf6">€0.06/kWh forecast</text>
    </g>

    <!-- EPEX PRICE CHART -->
    <g id="Ant.Card.PriceChart" transform="translate(24, 128)">
      <rect width="752" height="360" rx="8" fill="white" stroke="#f3f4f6" stroke-width="1"/>
      <text x="20" y="32" font-size="14" font-weight="600" fill="#111827">EPEX SPOT Day-Ahead Prices</text>
      <text x="20" y="50" font-size="11" fill="#9ca3af">Today + Tomorrow forecast</text>

      <!-- Y-axis labels -->
      <text x="20" y="86" font-size="10" fill="#9ca3af">€0.30</text>
      <text x="20" y="146" font-size="10" fill="#9ca3af">€0.20</text>
      <text x="20" y="206" font-size="10" fill="#9ca3af">€0.10</text>
      <text x="20" y="266" font-size="10" fill="#9ca3af">€0.00</text>
      <text x="20" y="316" font-size="10" fill="#9ca3af">-€0.05</text>

      <!-- Grid lines -->
      <line x1="56" y1="82" x2="732" y2="82" stroke="#f3f4f6" stroke-width="1"/>
      <line x1="56" y1="142" x2="732" y2="142" stroke="#f3f4f6" stroke-width="1"/>
      <line x1="56" y1="202" x2="732" y2="202" stroke="#f3f4f6" stroke-width="1"/>
      <line x1="56" y1="262" x2="732" y2="262" stroke="#f3f4f6" stroke-width="1"/>
      <line x1="56" y1="312" x2="732" y2="312" stroke="#f3f4f6" stroke-width="1"/>

      <!-- Average line -->
      <line x1="56" y1="172" x2="732" y2="172" stroke="#f59e0b" stroke-width="1" stroke-dasharray="4,4"/>
      <text x="736" y="176" font-size="9" fill="#f59e0b">avg</text>

      <!-- Price bars (24 hours today) -->
      <rect x="60" y="182" width="12" height="80" rx="1" fill="#22c55e" opacity="0.7"/>
      <rect x="76" y="192" width="12" height="70" rx="1" fill="#22c55e" opacity="0.7"/>
      <rect x="92" y="222" width="12" height="40" rx="1" fill="#22c55e"/>
      <rect x="108" y="232" width="12" height="30" rx="1" fill="#22c55e"/>
      <rect x="124" y="242" width="12" height="20" rx="1" fill="#22c55e"/>
      <rect x="140" y="252" width="12" height="10" rx="1" fill="#22c55e"/>
      <rect x="156" y="222" width="12" height="40" rx="1" fill="#22c55e"/>
      <rect x="172" y="172" width="12" height="90" rx="1" fill="#f59e0b"/>
      <rect x="188" y="132" width="12" height="130" rx="1" fill="#ef4444"/>
      <rect x="204" y="112" width="12" height="150" rx="1" fill="#ef4444"/>
      <rect x="220" y="102" width="12" height="160" rx="1" fill="#ef4444"/>
      <rect x="236" y="122" width="12" height="140" rx="1" fill="#ef4444"/>
      <rect x="252" y="142" width="12" height="120" rx="1" fill="#f59e0b"/>
      <rect x="268" y="152" width="12" height="110" rx="1" fill="#f59e0b"/>
      <!-- Current hour highlighted -->
      <rect x="284" y="162" width="12" height="100" rx="1" fill="#1a5fff" stroke="#1a5fff" stroke-width="2"/>
      <rect x="300" y="152" width="12" height="110" rx="1" fill="#f59e0b"/>
      <rect x="316" y="142" width="12" height="120" rx="1" fill="#f59e0b"/>
      <rect x="332" y="122" width="12" height="140" rx="1" fill="#ef4444"/>
      <rect x="348" y="132" width="12" height="130" rx="1" fill="#ef4444"/>
      <rect x="364" y="162" width="12" height="100" rx="1" fill="#f59e0b"/>
      <rect x="380" y="192" width="12" height="70" rx="1" fill="#22c55e"/>
      <rect x="396" y="212" width="12" height="50" rx="1" fill="#22c55e"/>
      <rect x="412" y="222" width="12" height="40" rx="1" fill="#22c55e"/>
      <rect x="428" y="232" width="12" height="30" rx="1" fill="#22c55e"/>

      <!-- Tomorrow forecast (faded) -->
      <rect x="460" y="202" width="12" height="60" rx="1" fill="#3b82f6" opacity="0.3"/>
      <rect x="476" y="212" width="12" height="50" rx="1" fill="#3b82f6" opacity="0.3"/>
      <rect x="492" y="232" width="12" height="30" rx="1" fill="#3b82f6" opacity="0.3"/>
      <rect x="508" y="242" width="12" height="20" rx="1" fill="#3b82f6" opacity="0.3"/>
      <rect x="524" y="252" width="12" height="10" rx="1" fill="#3b82f6" opacity="0.3"/>
      <rect x="540" y="242" width="12" height="20" rx="1" fill="#3b82f6" opacity="0.3"/>
      <rect x="556" y="212" width="12" height="50" rx="1" fill="#3b82f6" opacity="0.3"/>
      <rect x="572" y="152" width="12" height="110" rx="1" fill="#3b82f6" opacity="0.3"/>
      <rect x="588" y="122" width="12" height="140" rx="1" fill="#3b82f6" opacity="0.3"/>
      <rect x="604" y="112" width="12" height="150" rx="1" fill="#3b82f6" opacity="0.3"/>
      <rect x="620" y="132" width="12" height="130" rx="1" fill="#3b82f6" opacity="0.3"/>
      <rect x="636" y="152" width="12" height="110" rx="1" fill="#3b82f6" opacity="0.3"/>

      <!-- X-axis labels -->
      <text x="60" y="336" font-size="9" fill="#9ca3af">00</text>
      <text x="156" y="336" font-size="9" fill="#9ca3af">06</text>
      <text x="252" y="336" font-size="9" fill="#9ca3af">12</text>
      <text x="348" y="336" font-size="9" fill="#9ca3af">18</text>
      <text x="428" y="336" font-size="9" fill="#9ca3af">00</text>
      <text x="524" y="336" font-size="9" fill="#9ca3af">06</text>
      <text x="620" y="336" font-size="9" fill="#9ca3af">12</text>
      <text x="420" y="352" font-size="10" fill="#9ca3af">Today</text>
      <text x="560" y="352" font-size="10" fill="#9ca3af" opacity="0.5">Tomorrow (forecast)</text>
    </g>

    <!-- CHARGE SCHEDULE -->
    <g id="Ant.Card.ChargeSchedule" transform="translate(796, 128)">
      <rect width="380" height="360" rx="8" fill="white" stroke="#f3f4f6" stroke-width="1"/>
      <text x="20" y="32" font-size="14" font-weight="600" fill="#111827">Charge Schedule</text>
      <text x="20" y="50" font-size="11" fill="#9ca3af">Optimized battery charging plan</text>

      <!-- Schedule items -->
      <g transform="translate(20, 70)">
        <rect width="340" height="56" rx="8" fill="#f0fdf4" stroke="#bbf7d0" stroke-width="1"/>
        <circle cx="20" cy="28" r="8" fill="#22c55e"/>
        <text x="16" y="32" font-size="10" fill="white" font-weight="600" text-anchor="middle">1</text>
        <text x="40" y="22" font-size="12" font-weight="500" fill="#111827">02:00 – 06:00</text>
        <text x="40" y="40" font-size="11" fill="#22c55e">Charge 30 kWh @ €0.06/kWh</text>
        <text x="300" y="32" font-size="12" font-weight="600" fill="#22c55e">€1.80</text>
      </g>

      <g transform="translate(20, 138)">
        <rect width="340" height="56" rx="8" fill="#eff6ff" stroke="#bfdbfe" stroke-width="1"/>
        <circle cx="20" cy="28" r="8" fill="#3b82f6"/>
        <text x="16" y="32" font-size="10" fill="white" font-weight="600" text-anchor="middle">2</text>
        <text x="40" y="22" font-size="12" font-weight="500" fill="#111827">12:00 – 14:00</text>
        <text x="40" y="40" font-size="11" fill="#3b82f6">Solar surplus → Battery</text>
        <text x="300" y="32" font-size="12" font-weight="600" fill="#22c55e">€0.00</text>
      </g>

      <g transform="translate(20, 206)">
        <rect width="340" height="56" rx="8" fill="#fef2f2" stroke="#fecaca" stroke-width="1"/>
        <circle cx="20" cy="28" r="8" fill="#ef4444"/>
        <text x="16" y="32" font-size="10" fill="white" font-weight="600" text-anchor="middle">3</text>
        <text x="40" y="22" font-size="12" font-weight="500" fill="#111827">17:00 – 19:00</text>
        <text x="40" y="40" font-size="11" fill="#ef4444">Discharge → Avoid peak price</text>
        <text x="300" y="32" font-size="12" font-weight="600" fill="#22c55e">-€8.40</text>
      </g>

      <!-- Cost forecast -->
      <rect x="20" y="280" width="340" height="60" rx="8" fill="#fafafa"/>
      <text x="40" y="304" font-size="12" fill="#6b7280">Today's forecast cost:</text>
      <text x="260" y="304" font-size="16" font-weight="700" fill="#111827">€12.60</text>
      <text x="40" y="324" font-size="11" fill="#22c55e">vs €46.80 without optimization (−73%)</text>
    </g>

    <!-- COST FORECAST TABLE -->
    <g id="Ant.Card.CostForecast" transform="translate(24, 504)">
      <rect width="1152" height="320" rx="8" fill="white" stroke="#f3f4f6" stroke-width="1"/>
      <text x="20" y="32" font-size="14" font-weight="600" fill="#111827">Weekly Cost Forecast</text>

      <!-- Table header -->
      <rect x="0" y="48" width="1152" height="36" fill="#fafafa"/>
      <text x="20" y="71" font-size="11" fill="#9ca3af" font-weight="600">DAY</text>
      <text x="180" y="71" font-size="11" fill="#9ca3af" font-weight="600">AVG PRICE</text>
      <text x="320" y="71" font-size="11" fill="#9ca3af" font-weight="600">CONSUMPTION</text>
      <text x="480" y="71" font-size="11" fill="#9ca3af" font-weight="600">GRID COST</text>
      <text x="620" y="71" font-size="11" fill="#9ca3af" font-weight="600">OPTIMIZED COST</text>
      <text x="780" y="71" font-size="11" fill="#9ca3af" font-weight="600">SAVINGS</text>
      <text x="920" y="71" font-size="11" fill="#9ca3af" font-weight="600">SELF-CONSUMPTION</text>

      <!-- Rows -->
      <text x="20" y="108" font-size="13" font-weight="500" fill="#111827">Monday (Today)</text>
      <text x="180" y="108" font-size="13" fill="#111827">€0.184</text>
      <text x="320" y="108" font-size="13" fill="#111827">82 kWh</text>
      <text x="480" y="108" font-size="13" fill="#111827">€46.80</text>
      <text x="620" y="108" font-size="13" font-weight="500" fill="#22c55e">€12.60</text>
      <text x="780" y="108" font-size="13" font-weight="600" fill="#22c55e">€34.20</text>
      <text x="920" y="108" font-size="13" fill="#111827">84%</text>
      <rect x="0" y="120" width="1152" height="1" fill="#f3f4f6"/>

      <text x="20" y="148" font-size="13" fill="#111827">Tuesday</text>
      <text x="180" y="148" font-size="13" fill="#111827">€0.172</text>
      <text x="320" y="148" font-size="13" fill="#111827">78 kWh</text>
      <text x="480" y="148" font-size="13" fill="#111827">€42.10</text>
      <text x="620" y="148" font-size="13" font-weight="500" fill="#22c55e">€11.80</text>
      <text x="780" y="148" font-size="13" font-weight="600" fill="#22c55e">€30.30</text>
      <text x="920" y="148" font-size="13" fill="#111827">86%</text>
      <rect x="0" y="160" width="1152" height="1" fill="#f3f4f6"/>

      <text x="20" y="188" font-size="13" fill="#111827">Wednesday</text>
      <text x="180" y="188" font-size="13" fill="#111827">€0.196</text>
      <text x="320" y="188" font-size="13" fill="#111827">85 kWh</text>
      <text x="480" y="188" font-size="13" fill="#111827">€51.20</text>
      <text x="620" y="188" font-size="13" font-weight="500" fill="#22c55e">€14.20</text>
      <text x="780" y="188" font-size="13" font-weight="600" fill="#22c55e">€37.00</text>
      <text x="920" y="188" font-size="13" fill="#111827">82%</text>
      <rect x="0" y="200" width="1152" height="1" fill="#f3f4f6"/>

      <text x="20" y="228" font-size="13" fill="#111827">Thursday</text>
      <text x="180" y="228" font-size="13" fill="#111827">€0.168</text>
      <text x="320" y="228" font-size="13" fill="#111827">80 kWh</text>
      <text x="480" y="228" font-size="13" fill="#111827">€44.60</text>
      <text x="620" y="228" font-size="13" font-weight="500" fill="#22c55e">€12.40</text>
      <text x="780" y="228" font-size="13" font-weight="600" fill="#22c55e">€32.20</text>
      <text x="920" y="228" font-size="13" fill="#111827">85%</text>
      <rect x="0" y="240" width="1152" height="1" fill="#f3f4f6"/>

      <!-- Weekly total -->
      <rect x="0" y="256" width="1152" height="44" fill="#f9fafb"/>
      <text x="20" y="283" font-size="13" font-weight="600" fill="#111827">Week Total</text>
      <text x="320" y="283" font-size="13" font-weight="600" fill="#111827">568 kWh</text>
      <text x="480" y="283" font-size="13" font-weight="600" fill="#111827">€312.40</text>
      <text x="620" y="283" font-size="13" font-weight="600" fill="#22c55e">€86.20</text>
      <text x="780" y="283" font-size="13" font-weight="700" fill="#22c55e">€226.20</text>
    </g>
  </g>
</svg>