<svg xmlns="http://www.w3.org/2000/svg" width="1440" height="900" viewBox="0 0 1440 900" fill="none">
  <defs><style>text { font-family: Inter, -apple-system, sans-serif; }</style></defs>
  <rect width="1440" height="900" fill="#f9fafb"/>

  <!-- SIDEBAR -->
  <g id="Ant.Layout.Sider">
    <rect width="240" height="900" fill="#fafafa"/>
    <rect x="239" width="1" height="900" fill="#e5e7eb"/>
    <rect x="20" y="16" width="24" height="24" rx="6" fill="#1a5fff"/>
    <path d="M28 22l4 6h-8l4-6z" fill="white" opacity="0.9"/>
    <text x="52" y="33" font-size="15" font-weight="600" fill="#111827">OrbitEOS</text>
    <rect x="0" y="56" width="240" height="1" fill="#e5e7eb"/>
    <rect x="12" y="68" width="216" height="36" rx="6" fill="#f9fafb" stroke="#e5e7eb" stroke-width="1"/>
    <text x="28" y="90" font-size="12" fill="#6b7280">De Groot Agri · Maasland</text>
    <text x="56" y="142" font-size="13" fill="#6b7280">Dashboard</text>
    <text x="56" y="182" font-size="13" fill="#6b7280">Energy Flow</text>
    <text x="56" y="224" font-size="13" fill="#6b7280">Fleet</text>
    <text x="56" y="268" font-size="13" fill="#6b7280">Devices</text>
    <text x="56" y="312" font-size="13" fill="#6b7280">Alerts</text>
    <text x="56" y="356" font-size="13" fill="#6b7280">Marketplace</text>
    <text x="56" y="400" font-size="13" fill="#6b7280">Configuration</text>
    <rect x="12" y="418" width="216" height="36" rx="6" fill="#eaf5ff"/>
    <rect x="0" y="422" width="3" height="28" rx="1" fill="#1a5fff"/>
    <text x="56" y="442" font-size="13" font-weight="500" fill="#1a5fff">Compliance</text>
    <rect x="0" y="840" width="240" height="1" fill="#e5e7eb"/>
    <circle cx="36" cy="872" r="16" fill="#e5e7eb"/>
    <text x="60" y="870" font-size="13" font-weight="500" fill="#111827">Deepak S.</text>
    <text x="60" y="885" font-size="11" fill="#9ca3af">Admin</text>
  </g>

  <!-- HEADER -->
  <g id="Ant.Layout.Header">
    <rect x="240" y="0" width="1200" height="56" fill="white"/>
    <rect x="240" y="55" width="1200" height="1" fill="#e5e7eb"/>
    <text x="264" y="24" font-size="13" fill="#9ca3af">Regulatory /</text>
    <text x="338" y="24" font-size="13" font-weight="500" fill="#111827">Compliance Log</text>
    <text x="264" y="42" font-size="11" fill="#9ca3af">Energiewet regulatory mapping and audit trail</text>
    <rect x="1280" y="12" width="130" height="32" rx="6" fill="white" stroke="#e5e7eb" stroke-width="1"/>
    <text x="1345" y="33" font-size="12" font-weight="500" fill="#6b7280" text-anchor="middle">Export Report</text>
  </g>

  <!-- CONTENT -->
  <g id="Ant.Layout.Content" transform="translate(240, 56)">
    <rect width="1200" height="844" fill="#f9fafb"/>

    <!-- COMPLIANCE SCORE -->
    <g transform="translate(24, 16)">
      <rect width="275" height="140" rx="8" fill="white" stroke="#22c55e" stroke-width="2"/>
      <text x="20" y="32" font-size="11" fill="#9ca3af">OVERALL COMPLIANCE</text>
      <text x="20" y="66" font-size="36" font-weight="700" fill="#22c55e">98%</text>
      <text x="20" y="88" font-size="12" fill="#22c55e">Excellent standing</text>
      <text x="20" y="112" font-size="11" fill="#6b7280">Last audit: Mar 15, 2026</text>
      <text x="20" y="128" font-size="11" fill="#6b7280">Next review: Jun 15, 2026</text>

      <rect x="295" y="0" width="275" height="140" rx="8" fill="white" stroke="#f3f4f6" stroke-width="1"/>
      <text x="315" y="32" font-size="11" fill="#9ca3af">REGULATIONS TRACKED</text>
      <text x="315" y="66" font-size="36" font-weight="700" fill="#111827">12</text>
      <text x="315" y="88" font-size="12" fill="#22c55e">11 compliant</text>
      <text x="315" y="108" font-size="12" fill="#f59e0b">1 action needed</text>

      <rect x="590" y="0" width="275" height="140" rx="8" fill="white" stroke="#f3f4f6" stroke-width="1"/>
      <text x="610" y="32" font-size="11" fill="#9ca3af">AUDIT LOG ENTRIES</text>
      <text x="610" y="66" font-size="36" font-weight="700" fill="#111827">1,842</text>
      <text x="610" y="88" font-size="12" fill="#6b7280">This quarter</text>
      <text x="610" y="108" font-size="12" fill="#22c55e">All auto-documented</text>

      <rect x="885" y="0" width="267" height="140" rx="8" fill="white" stroke="#f3f4f6" stroke-width="1"/>
      <text x="905" y="32" font-size="11" fill="#9ca3af">DATA RETENTION</text>
      <text x="905" y="66" font-size="36" font-weight="700" fill="#111827">5 yr</text>
      <text x="905" y="88" font-size="12" fill="#22c55e">Meets Energiewet Art. 8.3</text>
      <text x="905" y="108" font-size="12" fill="#6b7280">842 GB stored</text>
    </g>

    <!-- REGULATORY MAPPING TABLE -->
    <g id="Ant.Table.Regulations" transform="translate(24, 172)">
      <rect width="1152" height="460" rx="8" fill="white" stroke="#f3f4f6" stroke-width="1"/>
      <text x="20" y="32" font-size="14" font-weight="600" fill="#111827">Energiewet Regulatory Mapping</text>

      <rect x="0" y="48" width="1152" height="36" fill="#fafafa"/>
      <text x="20" y="71" font-size="11" fill="#9ca3af" font-weight="600">ARTICLE</text>
      <text x="120" y="71" font-size="11" fill="#9ca3af" font-weight="600">REQUIREMENT</text>
      <text x="480" y="71" font-size="11" fill="#9ca3af" font-weight="600">IMPLEMENTATION</text>
      <text x="780" y="71" font-size="11" fill="#9ca3af" font-weight="600">STATUS</text>
      <text x="900" y="71" font-size="11" fill="#9ca3af" font-weight="600">LAST VERIFIED</text>
      <text x="1060" y="71" font-size="11" fill="#9ca3af" font-weight="600">EVIDENCE</text>

      <!-- Row 1 -->
      <text x="20" y="108" font-size="12" font-weight="500" fill="#111827">Art. 12.4</text>
      <text x="120" y="108" font-size="12" fill="#6b7280">DSO signal response within 60s</text>
      <text x="480" y="108" font-size="12" fill="#111827">Auto-response engine (avg 2.3s)</text>
      <rect x="780" y="95" width="72" height="22" rx="11" fill="#def6e7"/>
      <text x="792" y="110" font-size="10" fill="#22c55e">Compliant</text>
      <text x="900" y="108" font-size="12" fill="#6b7280">Today</text>
      <text x="1060" y="108" font-size="12" fill="#1a5fff">View →</text>
      <rect x="0" y="120" width="1152" height="1" fill="#f3f4f6"/>

      <!-- Row 2 -->
      <text x="20" y="148" font-size="12" font-weight="500" fill="#111827">Art. 15.2</text>
      <text x="120" y="148" font-size="12" fill="#6b7280">Feed-in curtailment compliance</text>
      <text x="480" y="148" font-size="12" fill="#111827">Inverter power limiting via Modbus</text>
      <rect x="780" y="135" width="72" height="22" rx="11" fill="#def6e7"/>
      <text x="792" y="150" font-size="10" fill="#22c55e">Compliant</text>
      <text x="900" y="148" font-size="12" fill="#6b7280">Today</text>
      <text x="1060" y="148" font-size="12" fill="#1a5fff">View →</text>
      <rect x="0" y="160" width="1152" height="1" fill="#f3f4f6"/>

      <!-- Row 3 -->
      <text x="20" y="188" font-size="12" font-weight="500" fill="#111827">Art. 8.3</text>
      <text x="120" y="188" font-size="12" fill="#6b7280">Energy data retention (5 years)</text>
      <text x="480" y="188" font-size="12" fill="#111827">TimescaleDB with compression</text>
      <rect x="780" y="175" width="72" height="22" rx="11" fill="#def6e7"/>
      <text x="792" y="190" font-size="10" fill="#22c55e">Compliant</text>
      <text x="900" y="188" font-size="12" fill="#6b7280">Mar 15</text>
      <text x="1060" y="188" font-size="12" fill="#1a5fff">View →</text>
      <rect x="0" y="200" width="1152" height="1" fill="#f3f4f6"/>

      <!-- Row 4 -->
      <text x="20" y="228" font-size="12" font-weight="500" fill="#111827">Art. 22.1</text>
      <text x="120" y="228" font-size="12" fill="#6b7280">Smart meter data (DSMR 5.0)</text>
      <text x="480" y="228" font-size="12" fill="#111827">P1 port reader, 10s intervals</text>
      <rect x="780" y="215" width="72" height="22" rx="11" fill="#def6e7"/>
      <text x="792" y="230" font-size="10" fill="#22c55e">Compliant</text>
      <text x="900" y="228" font-size="12" fill="#6b7280">Mar 20</text>
      <text x="1060" y="228" font-size="12" fill="#1a5fff">View →</text>
      <rect x="0" y="240" width="1152" height="1" fill="#f3f4f6"/>

      <!-- Row 5 -->
      <text x="20" y="268" font-size="12" font-weight="500" fill="#111827">Art. 31.5</text>
      <text x="120" y="268" font-size="12" fill="#6b7280">EV charging authorization</text>
      <text x="480" y="268" font-size="12" fill="#111827">OCPP 1.6J + RFID auth</text>
      <rect x="780" y="255" width="72" height="22" rx="11" fill="#def6e7"/>
      <text x="792" y="270" font-size="10" fill="#22c55e">Compliant</text>
      <text x="900" y="268" font-size="12" fill="#6b7280">Mar 18</text>
      <text x="1060" y="268" font-size="12" fill="#1a5fff">View →</text>
      <rect x="0" y="280" width="1152" height="1" fill="#f3f4f6"/>

      <!-- Row 6 - Action needed -->
      <rect x="4" y="288" width="1144" height="40" rx="4" fill="#fffbeb" opacity="0.5"/>
      <text x="20" y="312" font-size="12" font-weight="500" fill="#111827">Art. 45.2</text>
      <text x="120" y="312" font-size="12" fill="#6b7280">Annual energy efficiency report</text>
      <text x="480" y="312" font-size="12" fill="#f59e0b">Report generation pending</text>
      <rect x="780" y="299" width="96" height="22" rx="11" fill="#fefce8"/>
      <text x="792" y="314" font-size="10" fill="#f59e0b">Action Needed</text>
      <text x="900" y="312" font-size="12" fill="#f59e0b">Due Apr 1</text>
      <text x="1060" y="312" font-size="12" fill="#1a5fff">Generate →</text>

      <text x="20" y="420" font-size="12" fill="#9ca3af">Showing 6 of 12 regulations</text>
    </g>

    <!-- AUDIT TRAIL -->
    <g id="Ant.Card.AuditTrail" transform="translate(24, 648)">
      <rect width="1152" height="170" rx="8" fill="white" stroke="#f3f4f6" stroke-width="1"/>
      <text x="20" y="32" font-size="14" font-weight="600" fill="#111827">Recent Audit Trail</text>
      <text x="1080" y="32" font-size="12" fill="#1a5fff">View Full Log →</text>

      <text x="20" y="64" font-size="11" fill="#9ca3af">14:32:01</text>
      <rect x="100" y="52" width="72" height="20" rx="10" fill="#def6e7"/>
      <text x="112" y="66" font-size="10" fill="#22c55e">Art. 12.4</text>
      <text x="184" y="64" font-size="12" fill="#111827">DSO curtailment signal received — auto-response triggered in 1.8s</text>

      <text x="20" y="92" font-size="11" fill="#9ca3af">14:31:45</text>
      <rect x="100" y="80" width="72" height="20" rx="10" fill="#eff6ff"/>
      <text x="112" y="94" font-size="10" fill="#3b82f6">Art. 22.1</text>
      <text x="184" y="92" font-size="12" fill="#111827">DSMR P1 data logged — consumption: 2.4 kW, export: 12.4 kW</text>

      <text x="20" y="120" font-size="11" fill="#9ca3af">14:30:00</text>
      <rect x="100" y="108" width="72" height="20" rx="10" fill="#f5f3ff"/>
      <text x="112" y="122" font-size="10" fill="#8b5cf6">Art. 31.5</text>
      <text x="184" y="120" font-size="12" fill="#111827">EV charging session authorized — RFID tag NL-42-AUTH, ALFEN-001</text>

      <text x="20" y="148" font-size="11" fill="#9ca3af">14:15:00</text>
      <rect x="100" y="136" width="72" height="20" rx="10" fill="#def6e7"/>
      <text x="112" y="150" font-size="10" fill="#22c55e">Art. 8.3</text>
      <text x="184" y="148" font-size="12" fill="#111827">Energy data batch compressed and archived — 2.4 MB → 0.3 MB</text>
    </g>
  </g>
</svg>